<?xml version="1.0" encoding="UTF-8"?>
<svg id="a" data-name="Layer 1" xmlns="http://www.w3.org/2000/svg" viewBox="0 0 780 400">
  <g fill="#fff">
    <path d="M124.995,247.451c-47.874,0-74.502-31.444-76.485-69.687h42.775c1.699,17.847,12.464,32.295,33.427,32.295,21.813,0,34.277-14.165,34.277-40.793V37.257h41.358v132.292c0,50.99-32.011,77.901-75.353,77.901Z"/>
    <path d="M230.656,37.257h84.701c43.342,0,69.404,18.979,69.404,55.523,0,22.945-13.031,38.809-28.611,44.191,20.113,6.233,35.127,25.496,35.127,48.724,0,37.959-26.345,58.356-69.121,58.356h-91.5V37.257ZM313.091,122.525c20.963,0,32.011-7.932,32.011-25.495,0-17.281-11.048-24.929-32.294-24.929h-42.493v50.424h42.776ZM270.316,209.208h48.441c20.963,0,32.577-10.765,32.577-27.194,0-16.714-11.614-26.912-32.577-26.912h-48.441v54.107Z"/>
    <path d="M454.727,151.703h-37.392l10.765-114.445h124.926v35.693h-93.766l-4.249,45.892c8.215-7.931,21.529-14.73,40.792-14.73,42.209,0,69.687,29.461,69.687,70.253,0,39.943-29.744,73.086-78.468,73.086-45.325,0-75.637-25.778-79.886-67.987h40.793c2.833,21.529,18.696,34.56,39.659,34.56,24.646,0,38.81-16.997,38.81-39.942,0-22.096-13.881-38.81-38.243-38.81-15.013,0-26.627,6.516-33.427,16.43Z"/>
    <path d="M674.834,178.048l-36.26,30.31h92.916v35.694h-150.139v-30.877l58.073-49.575c32.294-27.478,48.157-41.358,48.157-62.038,0-17.281-9.915-32.011-31.727-32.011-22.38,0-35.411,16.146-36.26,39.659h-39.66c.283-42.209,30.311-75.353,77.902-75.353,44.758,0,71.67,28.612,71.67,65.721,0,34.56-24.929,54.39-54.673,78.469Z"/>
  </g>
  <g fill="#fff">
    <path d="M249.186,366.47h-5.737l-29.106-42.065v42.065h-6.444v-51.696h6.798l28.044,40.365v-40.365h6.445v51.696Z"/>
    <path d="M295.926,314.774v5.878h-28.114v16.359h25.281v5.808h-25.281v17.775h28.114v5.878h-34.559v-51.696h34.559Z"/>
    <path d="M338.276,314.774l11.472,42.278,11.259-42.278h6.445l-14.234,51.696h-6.303l-11.402-41.286-11.401,41.286h-6.303l-14.305-51.696h6.586l11.189,42.278,11.543-42.278h5.453Z"/>
    <path d="M409.59,366.47v-21.528l-19.616-30.168h7.152l15.863,24.574,15.863-24.574h7.01l-19.687,30.168v21.528h-6.586Z"/>
    <path d="M460.72,313.996c13.88,0,23.724,11.118,23.724,26.626s-9.844,26.627-23.724,26.627c-13.809,0-23.724-11.118-23.724-26.627s9.915-26.626,23.724-26.626ZM460.72,320.015c-10.127,0-16.926,8.569-16.926,20.608s6.799,20.608,16.926,20.608c10.198,0,16.925-8.568,16.925-20.608s-6.727-20.608-16.925-20.608Z"/>
    <path d="M500.946,366.47h-6.516v-51.696h20.679c10.127,0,17.28,5.169,17.28,15.296,0,8.356-5.099,13.385-12.96,14.801l14.588,21.599h-7.507l-14.092-21.174h-11.472v21.174ZM500.946,320.511v19.12h14.022c6.94,0,10.905-3.541,10.905-9.561,0-6.161-3.965-9.56-10.905-9.56h-14.022Z"/>
    <path d="M549.386,339.773l25.14-24.999h8.215l-22.59,22.378,23.369,29.318h-8.072l-20.042-24.857-6.02,5.949v18.908h-6.586v-51.696h6.586v24.999Z"/>
  </g>
</svg>
