<?xml version="1.0" encoding="UTF-8"?>
<svg id="a" data-name="Layer 1" xmlns="http://www.w3.org/2000/svg" viewBox="0 0 780 260">
  <path d="M119.085,233.597c-47.858,0-74.478-31.433-76.46-69.664h42.761c1.699,17.841,12.46,32.284,33.416,32.284,21.806,0,34.266-14.16,34.266-40.779V23.475h41.345v132.248c0,50.973-32,77.875-75.327,77.875Z"/>
  <path d="M224.711,23.475h84.672c43.328,0,69.381,18.973,69.381,55.504,0,22.938-13.026,38.796-28.602,44.176,20.107,6.231,35.116,25.487,35.116,48.708,0,37.947-26.336,58.336-69.098,58.336h-91.468V23.475ZM307.117,108.713c20.956,0,32-7.929,32-25.486,0-17.275-11.044-24.92-32.284-24.92h-42.477v50.407h42.761ZM264.356,195.368h48.425c20.956,0,32.566-10.761,32.566-27.185,0-16.708-11.61-26.903-32.566-26.903h-48.425v54.089Z"/>
  <path d="M448.707,137.882h-37.381l10.76-114.407h124.885v35.681h-93.734l-4.248,45.876c8.212-7.929,21.522-14.725,40.778-14.725,42.194,0,69.664,29.451,69.664,70.23,0,39.929-29.734,73.061-78.442,73.061-45.31,0-75.61-25.769-79.858-67.964h40.778c2.832,21.522,18.69,34.548,39.646,34.548,24.637,0,38.797-16.991,38.797-39.929,0-22.089-13.876-38.797-38.23-38.797-15.009,0-26.62,6.514-33.416,16.425Z"/>
  <path d="M668.738,164.218l-36.248,30.3h92.885v35.682h-150.088v-30.867l58.053-49.558c32.283-27.468,48.141-41.344,48.141-62.017,0-17.275-9.911-32-31.717-32-22.371,0-35.398,16.141-36.248,39.646h-39.646c.283-42.194,30.301-75.327,77.876-75.327,44.743,0,71.645,28.602,71.645,65.699,0,34.549-24.919,54.372-54.655,78.443Z"/>
</svg>
